<?xml version="1.0" encoding="UTF-8" standalone="no"?>
<svg
   version="1.1"
   id="Layer_1"
   x="0px"
   y="0px"
   viewBox="0 0 1100 237"
   xml:space="preserve"
   width="1100"
   height="237"
   sodipodi:docname="nautobot_logo.svg"
   inkscape:version="1.1 (c68e22c387, 2021-05-23)"
   xmlns:inkscape="http://www.inkscape.org/namespaces/inkscape"
   xmlns:sodipodi="http://sodipodi.sourceforge.net/DTD/sodipodi-0.dtd"
   xmlns:xlink="http://www.w3.org/1999/xlink"
   xmlns="http://www.w3.org/2000/svg"
   xmlns:svg="http://www.w3.org/2000/svg"
   xmlns:rdf="http://www.w3.org/1999/02/22-rdf-syntax-ns#"
   xmlns:cc="http://creativecommons.org/ns#"
   xmlns:dc="http://purl.org/dc/elements/1.1/"><sodipodi:namedview
   id="namedview31"
   pagecolor="#ffffff"
   bordercolor="#666666"
   borderopacity="1.0"
   inkscape:pageshadow="2"
   inkscape:pageopacity="0.0"
   inkscape:pagecheckerboard="0"
   showgrid="false"
   inkscape:snap-center="true"
   inkscape:zoom="1.9236364"
   inkscape:cx="387.54726"
   inkscape:cy="133.86106"
   inkscape:window-width="1600"
   inkscape:window-height="837"
   inkscape:window-x="-8"
   inkscape:window-y="-8"
   inkscape:window-maximized="1"
   inkscape:current-layer="g1081" /><metadata
   id="metadata200"><rdf:RDF><cc:Work
       rdf:about=""><dc:format>image/svg+xml</dc:format><dc:type
         rdf:resource="http://purl.org/dc/dcmitype/StillImage" /><dc:title /></cc:Work></rdf:RDF></metadata><defs
   id="defs198"><linearGradient
     xlink:href="#SVGID_1_"
     id="linearGradient862"
     x1="460.85138"
     y1="121.78142"
     x2="460.85138"
     y2="19.859739"
     gradientUnits="userSpaceOnUse"
     gradientTransform="matrix(0.99792961,0,0,0.98683902,-168.03866,-18.99161)" /><linearGradient
     xlink:href="#SVGID_1_"
     id="linearGradient1083"
     gradientUnits="userSpaceOnUse"
     gradientTransform="matrix(0.99792961,0,0,0.98683902,-168.03866,-18.99161)"
     x1="460.85138"
     y1="121.78142"
     x2="460.85138"
     y2="19.859739" /></defs>
<style
   type="text/css"
   id="style132">
	.st0{fill:url(#SVGID_1_);}
	.st1{fill:#FFFFFF;}
	.st2{fill:#939598;}
	.st3{fill:#FF8400;}
	.st4{fill:url(#SVGID_2_);}
</style>
<g
   id="g193"
   transform="translate(313.22643,67.247685)">
	<linearGradient
   id="SVGID_1_"
   gradientUnits="userSpaceOnUse"
   x1="610.09967"
   y1="101.1704"
   x2="610.09967"
   y2="-0.087783419"
   gradientTransform="matrix(0.99286375,0,0,1,-312.45179,0)">
		<stop
   offset="0"
   style="stop-color:#0097FF"
   id="stop134" />
		<stop
   offset="1"
   style="stop-color:#0A31E0"
   id="stop136" />
	</linearGradient>
	
	
	
<g
   id="g1081"
   transform="matrix(2.3224585,0,0,2.3224585,-313.12321,-67.79805)"><path
     id="rect31"
     style="fill:url(#linearGradient1083);fill-opacity:1;stroke-width:0.992368"
     d="m 134.13667,0.23697528 h 317.68741 c 12.0592,0 21.7675,9.70830582 21.7675,21.76750172 v 58.524399 c 0,12.059196 -9.7083,21.767504 -21.7675,21.767504 H 134.13667 c -12.05919,0 -21.7675,-9.708308 -21.7675,-21.767504 V 22.004477 c 0,-12.0591959 9.70831,-21.76750172 21.7675,-21.76750172 z" /><g
     id="g191">
		
		<g
   id="g189">
			<g
   id="g179">
				<path
   class="st3"
   d="m 67.2,77.5 c -0.6,0 -1.1,-0.3 -1.4,-0.8 -0.5,-0.8 -0.2,-1.8 0.6,-2.3 L 96.7,56.5 66.3,38.7 c -0.8,-0.5 -1.1,-1.5 -0.6,-2.3 0.5,-0.8 1.5,-1.1 2.3,-0.6 L 103.2,56.5 68,77.3 c -0.2,0.1 -0.5,0.2 -0.8,0.2 z"
   id="path177" />
			</g>
			<g
   id="g183"
   style="stroke-width:0.99980258;stroke-miterlimit:4;stroke-dasharray:none">
				<path
   class="st3"
   d="m 34.4,77.5 c -0.6,0 -1.1,-0.3 -1.4,-0.8 -0.5,-0.8 -0.2,-1.8 0.6,-2.3 L 63.9,56.5 33.6,38.7 c -0.8,-0.5 -1.1,-1.5 -0.6,-2.3 0.5,-0.8 1.5,-1.1 2.3,-0.6 L 70.5,56.5 35.3,77.3 c -0.3,0.1 -0.6,0.2 -0.9,0.2 z"
   id="path181"
   style="stroke-width:0.99980258;stroke-miterlimit:4;stroke-dasharray:none" />
			</g>
			<g
   id="g187">
				<path
   class="st3"
   d="M 1.7,77.5 C 1.1,77.5 0.6,77.2 0.3,76.7 -0.2,75.9 0.1,74.9 0.9,74.4 L 31.2,56.5 0.8,38.7 C 0,38.2 -0.3,37.2 0.2,36.4 0.7,35.6 1.7,35.3 2.5,35.8 L 37.7,56.5 2.5,77.3 C 2.3,77.4 2,77.5 1.7,77.5 Z"
   id="path185" />
			</g>
		</g>
	</g><g
     aria-label="nautobot"
     id="text208"
     style="font-style:normal;font-weight:normal;font-size:71.0738px;line-height:1.25;font-family:sans-serif;fill:#ffffff;fill-opacity:1;stroke:none;stroke-width:1.77685"><path
       d="m 134.5074,19.105611 v 8.019488 c 2.03597,-3.746638 3.87528,-6.335607 5.51794,-7.766906 1.64265,-1.431299 3.49353,-2.146949 5.55264,-2.146949 2.22105,0 4.24545,0.862989 6.0732,2.588968 1.29561,1.262911 2.46398,3.367763 3.5051,6.314556 1.06426,2.904697 1.59639,5.893588 1.59639,8.966672 v 33.404007 h 2.46398 c 0.69408,0 1.1915,0.252582 1.49227,0.757746 0.30077,0.463068 0.45115,1.094524 0.45115,1.894367 0,0.757747 -0.15038,1.389202 -0.45115,1.894367 -0.30077,0.505165 -0.79819,0.757747 -1.49227,0.757747 h -7.8084 c -0.71721,0 -1.22621,-0.252582 -1.52698,-0.757747 -0.30077,-0.505165 -0.45115,-1.13662 -0.45115,-1.894367 0,-0.799843 0.15038,-1.431299 0.45115,-1.894367 0.30077,-0.505164 0.80977,-0.757746 1.52698,-0.757746 h 2.42928 V 35.965478 c 0,-3.746637 -0.75192,-6.903915 -2.25576,-9.471835 -1.50384,-2.610017 -3.51667,-0.557493 -6.0385,-0.557493 -1.92029,0 -0.67621,9.221401 -2.53518,3.713798 -1.18746,6.985092 -5.88632,-0.04112 -8.50069,5.557783 v 33.277716 h 3.29688 c 0.69408,0 1.1915,0.252582 1.49227,0.757746 0.30077,0.463068 0.45115,1.094524 0.45115,1.894367 0,0.757747 -0.15038,1.389202 -0.45115,1.894367 -0.30077,0.505165 -0.79819,0.757747 -1.49227,0.757747 h -9.5089 c -0.69408,0 -1.1915,-0.252582 -1.49227,-0.757747 -0.30077,-0.505165 -0.45115,-1.13662 -0.45115,-1.894367 0,-0.799843 0.15038,-1.431299 0.45115,-1.894367 0.30077,-0.505164 0.79819,-0.757746 1.49227,-0.757746 h 3.29688 V 24.472984 h -2.46398 c -0.69408,0 -1.1915,-0.252582 -1.49227,-0.757747 -0.30077,-0.505165 -0.45116,-1.157669 -0.45116,-1.957513 0,-0.757747 0.15039,-1.389202 0.45116,-1.894367 0.30077,-0.505164 0.79819,-0.757746 1.49227,-0.757746 z"
       style="font-style:normal;font-variant:normal;font-weight:normal;font-stretch:normal;font-size:71.0738px;font-family:'Courier New';-inkscape-font-specification:'Courier New, Normal';font-variant-ligatures:normal;font-variant-caps:normal;font-variant-numeric:normal;font-variant-east-asian:normal;fill:#ffffff;stroke-width:2.3968"
       id="path1085"
       sodipodi:nodetypes="ccssccscscsssssscscscscccscsssssscsccsssssc" /><path
       d="M 195.15091,71.775154 V 67.57597 c -4.23389,3.562944 -8.75698,5.344416 -13.56927,5.344416 -3.49353,0 -6.22358,-0.879168 -8.19014,-2.637504 -1.96656,-1.781472 -2.94984,-3.956256 -2.94984,-6.524353 0,-2.822592 -1.83808,-10.210958 0.75315,-12.316334 2.59124,-2.105377 9.50767,1.766317 14.48191,1.766317 1.34189,0 2.79945,0.09254 4.3727,0.277632 1.57325,0.161952 3.27374,0.428016 5.10149,0.798192 v -4.719744 c 0,-1.596384 -0.74035,-2.984544 -2.22106,-4.164481 -1.4807,-1.179936 -3.70176,-1.769904 -6.66317,-1.769904 -2.26733,0 -5.44853,0.659376 -9.5436,1.978128 -0.74035,0.231361 -1.21463,0.347041 -1.42286,0.347041 -0.37017,0 -0.69408,-0.138816 -0.97171,-0.416449 -0.2545,-0.277632 -0.38175,-0.624672 -0.38175,-1.04112 0,-0.393312 0.11568,-0.705648 0.34704,-0.937008 0.32391,-0.34704 0.51191,-3.73119 2.80238,-4.332726 3.60921,-0.971712 7.45844,1.452294 9.30932,1.452294 3.67863,0 6.54749,0.913872 8.60659,2.741616 2.05911,1.804609 3.08866,3.852145 3.08866,6.142609 v 19.295426 h 3.88685 c 0.71721,0 1.2262,0.138816 1.52697,0.416448 0.30077,0.254496 0.45116,0.601536 0.45116,1.04112 0,0.416448 -0.15039,0.763488 -0.45116,1.04112 -0.30077,0.277632 -0.80976,0.416448 -1.52697,0.416448 z m 0,-14.506273 c -1.36503,-0.393312 -2.81103,-0.682512 -4.338,-0.8676 -1.52698,-0.185088 -3.13493,-0.277632 -4.82386,-0.277632 -4.23389,0 -7.54233,0.913872 -9.92534,2.741616 -1.80461,1.365024 -2.70691,2.996112 -2.70691,4.893264 0,1.758337 0.68251,3.239041 2.04753,4.442113 1.38816,1.203072 3.40099,1.804608 6.0385,1.804608 2.52182,0 4.85856,-3.407286 7.01021,-4.402134 2.17478,-1.017984 4.4074,0.283926 6.69787,-1.913995 z"
       style="font-style:normal;font-variant:normal;font-weight:normal;font-stretch:normal;font-size:71.0738px;font-family:'Courier New';-inkscape-font-specification:'Courier New, Normal';font-variant-ligatures:normal;font-variant-caps:normal;font-variant-numeric:normal;font-variant-east-asian:normal;fill:#ffffff;stroke-width:1.77685"
       id="path1087"
       sodipodi:nodetypes="ccscsssccssscscsccscscscsssccsscscsccc" /><path
       d="m 239.36381,71.775154 v -4.268592 c -3.97939,3.609216 -8.28269,5.413824 -12.90989,5.413824 -2.84573,0 -5.00894,-0.775056 -6.48965,-2.325168 -1.92029,-2.035968 -2.88043,-4.407408 -2.88043,-7.114321 l 2.91514,-21.75941 -6.83669,2.94984 c 0,0 -1.1915,-0.138816 -1.49227,-0.416448 -0.30077,-0.277632 -0.45116,-0.63624 -0.45116,-1.075824 0,-0.416448 0.15039,-0.763488 0.45116,-1.04112 0.30077,-0.277632 0.79819,-0.416448 1.49227,-0.416448 h 6.83669 v 21.75941 c 0,1.897153 0.60153,3.458833 1.8046,4.685041 1.20307,1.226208 2.70691,1.839312 4.51152,1.839312 4.74289,0 4.61575,-6.875331 8.572,-11.2249 l 4.47671,-14.109023 h -5.37912 c -0.69408,0 -1.1915,-0.138816 -1.49227,-0.416448 -0.30077,-0.277632 -0.45115,-0.63624 -0.45115,-1.075824 0,-0.416448 0.15038,-0.763488 0.45115,-1.04112 0.30077,-0.277632 0.79819,-0.416448 1.49227,-0.416448 h 8.29426 v 27.138531 h 2.46398 c 0.69408,0 1.1915,0.138816 1.49227,0.416448 0.30077,0.254496 0.45115,0.601536 0.45115,1.04112 0,0.416448 -0.15038,0.763488 -0.45115,1.04112 -0.30077,0.277632 -0.79819,0.416448 -1.49227,0.416448 z"
       style="font-style:normal;font-variant:normal;font-weight:normal;font-stretch:normal;font-size:71.0738px;font-family:'Courier New';-inkscape-font-specification:'Courier New, Normal';font-variant-ligatures:normal;font-variant-caps:normal;font-variant-numeric:normal;font-variant-east-asian:normal;fill:#ffffff;stroke-width:1.77685"
       id="path1089"
       sodipodi:nodetypes="ccscscssssscsssccsssssccscsssc" /><path
       d="m 268.25484,39.930803 13.58667,1.790684 c 0.68813,0.09069 1.1915,0.138816 1.49227,0.416448 0.30077,0.277632 0.45115,0.63624 0.45115,1.075824 0,0.416448 -0.15038,0.763488 -0.45115,1.04112 -0.30077,0.277632 -0.79819,0.416448 -1.49227,0.416448 h -15.82503 l 1.79068,19.399538 c 0.15524,1.681779 -1.11973,3.100225 0.22216,4.233889 1.36502,1.133664 3.35472,1.700496 5.96909,1.700496 1.96656,0 4.54274,-2.079884 6.8332,-2.658284 2.29047,-0.601536 3.62427,0.518204 4.89675,-0.222148 0.46272,-0.300768 0.84446,-0.451152 1.14523,-0.451152 0.37017,0 0.69408,0.150384 0.97171,0.451152 0.27763,0.277632 0.41645,0.613104 0.41645,1.006416 0,0.34704 -0.15038,0.670944 -0.45115,0.971712 -0.74035,0.763488 -2.54496,1.596384 -5.41383,2.498688 -2.84573,0.879168 -5.57577,1.318752 -8.19014,1.318752 -3.40099,0 -6.10791,-0.798192 -8.12074,-2.394576 -2.01283,-1.596384 -3.01925,-3.748032 -3.01925,-6.454945 V 44.671327 h -5.37912 c -0.69408,0 -1.1915,-0.138816 -1.49227,-0.416448 -0.30077,-0.277632 -0.45115,-0.63624 -0.45115,-1.075824 0,-0.416448 0.15038,-0.763488 0.45115,-1.04112 0.30077,-0.277632 0.79819,-0.416448 1.49227,-0.416448 h 5.37912 v -8.606593 c 0,-0.69408 0.13882,-1.191504 0.41645,-1.492272 0.27763,-0.300768 0.62467,-0.451152 1.04112,-0.451152 0.43959,0 0.7982,0.150384 1.07583,0.451152 0.27763,0.300768 0.41644,0.798192 0.41644,1.492272 z"
       style="font-style:normal;font-variant:normal;font-weight:normal;font-stretch:normal;font-size:71.0738px;font-family:'Courier New';-inkscape-font-specification:'Courier New, Normal';font-variant-ligatures:normal;font-variant-caps:normal;font-variant-numeric:normal;font-variant-east-asian:normal;fill:#ffffff;stroke-width:1.77685"
       id="path1091"
       sodipodi:nodetypes="cssssscscsccscsccssscssssscsssssc" /><path
       d="m 330.91297,56.817729 c 0,4.442112 -1.59638,8.236416 -4.78915,11.382913 -3.16963,3.146496 -6.99864,4.719744 -11.48703,4.719744 -4.53465,0 -8.3868,-1.573248 -11.55643,-4.719744 -3.16963,-3.169633 -4.75445,-6.963937 -4.75445,-11.382913 0,-4.442113 1.58482,-8.236417 4.75445,-11.382914 3.16963,-3.169632 7.02178,-4.754448 11.55643,-4.754448 4.48839,0 10.10808,-0.888943 13.27771,2.257553 3.19277,3.146497 2.99847,9.41456 2.99847,13.879809 z m -2.94984,0 c 0,-3.655489 -1.30718,-6.767281 -3.92155,-9.335377 -2.59123,-2.568097 -5.73773,-3.852145 -9.43949,-3.852145 -3.70176,0 -6.85982,1.295616 -9.47419,3.886849 -2.59123,2.568096 -5.97719,6.33007 -3.88685,9.300673 3.91832,5.568378 1.29562,6.70944 3.88685,9.300673 2.61437,2.591232 5.77243,3.886848 9.47419,3.886848 3.70176,0 8.9305,0.763488 11.52173,-1.804608 2.61437,-2.591233 1.83931,-7.750561 1.83931,-11.382913 z"
       style="font-style:normal;font-variant:normal;font-weight:normal;font-stretch:normal;font-size:71.0738px;font-family:'Courier New';-inkscape-font-specification:'Courier New, Normal';font-variant-ligatures:normal;font-variant-caps:normal;font-variant-numeric:normal;font-variant-east-asian:normal;fill:#ffffff;stroke-width:1.77685"
       id="path1093"
       sodipodi:nodetypes="scscscscsscscscscs" /><path
       d="m 346.25214,28.22163 v 19.33013 c 3.51667,-4.580929 7.76213,-6.871393 12.73637,-6.871393 4.25703,0 7.90095,1.550112 10.93176,4.650336 3.03081,3.077089 4.54622,6.859825 4.54622,11.34821 0,4.534656 -1.53854,8.375232 -4.61563,11.521729 -3.05395,3.146496 -6.67474,4.719744 -10.86235,4.719744 -5.08992,0 -9.33538,-2.290464 -12.73637,-6.871392 v 5.72616 h -6.83669 c -0.69408,0 -1.1915,-0.138816 -1.49227,-0.416448 -0.30077,-0.277632 -0.45115,-0.624672 -0.45115,-1.04112 0,-0.439584 0.15038,-0.786624 0.45115,-1.04112 0.30077,-0.277632 0.79819,-0.416448 1.49227,-0.416448 v 0 L 343.337,31.17147 h -3.92155 c -0.69408,0 -1.1915,-0.138816 -1.49227,-0.416448 -0.30077,-0.277632 -0.45115,-0.63624 -0.45115,-1.075824 0,-0.416448 0.15038,-0.763488 0.45115,-1.04112 0.30077,-0.277632 0.79819,-0.416448 1.49227,-0.416448 z m 22.38936,28.596099 c 0,-3.678625 1.64895,-6.790417 -0.87288,-9.335377 -2.52182,-2.568097 -5.47166,-3.852145 -8.84952,-3.852145 -3.37785,0 -6.32769,1.284048 -8.84952,3.852145 -2.52183,2.54496 -3.78274,5.656752 -3.78274,9.335377 0,3.678624 1.26091,6.801984 3.78274,9.370081 2.52183,2.54496 5.47167,3.81744 8.84952,3.81744 3.37786,0 6.3277,-1.27248 8.84952,-3.81744 2.52183,-2.568097 0.87288,-5.691457 0.87288,-9.370081 z"
       style="font-style:normal;font-variant:normal;font-weight:normal;font-stretch:normal;font-size:71.0738px;font-family:'Courier New';-inkscape-font-specification:'Courier New, Normal';font-variant-ligatures:normal;font-variant-caps:normal;font-variant-numeric:normal;font-variant-east-asian:normal;fill:#ffffff;stroke-width:1.77685"
       id="path1095"
       sodipodi:nodetypes="ccscscsccssscsccssssscscscscscs" /><path
       d="m 416.146,56.817729 c 0,4.442112 -1.59638,8.236416 -4.78915,11.382913 -3.16963,3.146496 -6.99864,4.719744 -11.48702,4.719744 -4.53466,0 -8.38681,-1.573248 -11.55644,-4.719744 -3.16963,-3.169633 -4.75445,-6.963937 -4.75445,-11.382913 0,-4.442113 1.58482,-8.236417 4.75445,-11.382914 3.16963,-3.169632 7.02178,-4.754448 11.55644,-4.754448 4.48838,0 10.77958,0.0064 13.94921,3.152895 3.19277,3.146497 2.32696,8.519218 2.32696,12.984467 z m -2.94984,0 c 0,-3.655489 -1.30718,-6.767281 -3.92155,-9.335377 -2.59123,-2.568097 -5.73773,-3.852145 -9.43949,-3.852145 -3.70176,0 -6.85982,1.295616 -9.47419,3.886849 -2.59123,2.568096 -0.52932,4.772978 -0.52932,8.405331 0,3.609216 -2.06191,7.604782 0.52932,10.196015 2.61437,2.591232 5.77243,3.886848 9.47419,3.886848 3.70176,0 8.9305,0.763488 11.52173,-1.804608 2.61437,-2.591233 1.83931,-7.750561 1.83931,-11.382913 z"
       style="font-style:normal;font-variant:normal;font-weight:normal;font-stretch:normal;font-size:71.0738px;font-family:'Courier New';-inkscape-font-specification:'Courier New, Normal';font-variant-ligatures:normal;font-variant-caps:normal;font-variant-numeric:normal;font-variant-east-asian:normal;fill:#ffffff;stroke-width:1.77685"
       id="path1097"
       sodipodi:nodetypes="scscscscsscscscscs" /><path
       d="m 436.48255,41.721487 c 5.27501,0 15.08272,-9.065415 15.82502,0 0.0566,0.691765 1.19151,0.138816 1.49228,0.416448 0.30077,0.277632 0.45115,0.63624 0.45115,1.075824 0,0.416448 -0.15038,0.763488 -0.45115,1.04112 -0.30077,0.277632 -0.7982,0.416448 -1.49228,0.416448 h -15.82502 v 19.399538 c 0,1.688929 2.46163,1.757212 3.80351,2.890876 1.36503,1.133664 1.56404,3.043509 4.17841,3.043509 1.96656,0 4.09507,-0.2892 6.38554,-0.8676 2.29046,-0.601536 4.07193,-1.27248 5.34441,-2.012832 0.46272,-0.300768 0.84446,-0.451152 1.14523,-0.451152 0.37018,0 0.69409,0.150384 0.97172,0.451152 0.27763,0.277632 0.41644,0.613104 0.41644,1.006416 0,0.34704 -0.15038,0.670944 -0.45115,0.971712 -0.74035,0.763488 -2.54496,1.596384 -5.41382,2.498688 -2.84573,0.879168 -5.57578,1.318752 -8.19015,1.318752 -3.40099,0 -6.1079,-0.798192 -8.12073,-2.394576 -2.01283,-1.596384 -3.01925,-3.748032 -3.01925,-6.454945 l 2.94984,-19.399538 h -5.37912 c -0.69408,0 -4.14134,-0.138816 -4.44211,-0.416448 -0.30077,-0.277632 -0.45116,-0.63624 -0.45116,-1.075824 0,-0.416448 0.15039,-0.763488 0.45116,-1.04112 0.30077,-0.277632 0.79819,-0.416448 1.49227,-0.416448 h 5.37912 v -8.606593 c 0,-0.69408 0.13882,-1.191504 0.41645,-1.492272 0.27763,-0.300768 0.62467,-0.451152 1.04112,-0.451152 0.43958,0 0.79819,0.150384 1.07582,0.451152 0.27763,0.300768 0.41645,0.798192 0.41645,1.492272 z"
       style="font-style:normal;font-variant:normal;font-weight:normal;font-stretch:normal;font-size:71.0738px;font-family:'Courier New';-inkscape-font-specification:'Courier New, Normal';font-variant-ligatures:normal;font-variant-caps:normal;font-variant-numeric:normal;font-variant-east-asian:normal;fill:#ffffff;stroke-width:1.77685"
       id="path1099"
       sodipodi:nodetypes="cssssscscsccscsccssscssssscsssssc" /></g></g></g>
</svg>
